# Blender 3.4.1
# www.blender.org
mtllib crazy.mtl
o Plane
v -1.000000 0.000000 1.000000
v 1.000000 0.000000 1.000000
v -1.000000 0.000000 -1.000000
v 1.000000 0.000000 -1.000000
vn -0.0000 1.0000 -0.0000
vt 0.000000 0.000000
vt 1.000000 0.000000
vt 0.000000 1.000000
vt 1.000000 1.000000
s 0
usemtl Material.001
f 2/2/1 3/3/1 1/1/1
f 2/2/1 4/4/1 3/3/1
o Plane.001
v -1.000000 0.000000 -1.000000
v 1.000000 0.000000 -1.000000
v -1.000000 2.000000 -1.000000
v 1.000000 2.000000 -1.000000
vn -0.0000 -0.0000 1.0000
vt 0.000000 0.000000
vt 1.000000 0.000000
vt 0.000000 1.000000
vt 1.000000 1.000000
s 0
usemtl Material.002
f 6/6/2 7/7/2 5/5/2
f 6/6/2 8/8/2 7/7/2
o Plane.002
v -1.000000 2.000000 1.000000
v 1.000000 2.000000 1.000000
v -1.000000 0.000000 1.000000
v 1.000000 0.000000 1.000000
vn -0.0000 -0.0000 -1.0000
vt 0.000000 0.000000
vt 1.000000 0.000000
vt 0.000000 1.000000
vt 1.000000 1.000000
s 0
usemtl Material.003
f 10/10/3 11/11/3 9/9/3
f 10/10/3 12/12/3 11/11/3
o Plane.003
v 1.000000 0.000000 -1.000000
v 1.000000 0.000000 1.000000
v 1.000000 2.000000 -1.000000
v 1.000000 2.000000 1.000000
vn -1.0000 -0.0000 -0.0000
vt 0.000000 0.000000
vt 1.000000 0.000000
vt 0.000000 1.000000
vt 1.000000 1.000000
s 0
usemtl Material.004
f 14/14/4 15/15/4 13/13/4
f 14/14/4 16/16/4 15/15/4
o Plane.004
v -1.000000 2.000000 -1.000000
v -1.000000 2.000000 1.000000
v -1.000000 0.000000 -1.000000
v -1.000000 0.000000 1.000000
vn 1.0000 -0.0000 -0.0000
vt 0.000000 0.000000
vt 1.000000 0.000000
vt 0.000000 1.000000
vt 1.000000 1.000000
s 0
usemtl Material.005
f 18/18/5 19/19/5 17/17/5
f 18/18/5 20/20/5 19/19/5
o Plane.005
v -1.000000 2.000000 -1.000000
v 1.000000 2.000000 -1.000000
v -1.000000 2.000000 1.000000
v 1.000000 2.000000 1.000000
vn -0.0000 -1.0000 -0.0000
vt 0.000000 0.000000
vt 1.000000 0.000000
vt 0.000000 1.000000
vt 1.000000 1.000000
s 0
usemtl Material.006
f 22/22/6 23/23/6 21/21/6
f 22/22/6 24/24/6 23/23/6
o rat1_pCylinder24
v 0.024071 0.297069 -0.507786
v -0.000994 0.052572 -0.777975
v -0.078084 -0.012258 -0.538144
v -0.114117 0.156971 -0.425686
v -0.115878 0.219779 -0.758255
v -0.173799 0.301034 -0.616902
v -0.310845 0.054775 -0.691160
v -0.422896 0.041903 -0.530796
v -0.355682 0.147678 -0.519109
v -0.343418 0.173792 -0.635203
v -0.468080 0.028414 -0.627080
v 0.105958 0.107378 -0.479182
v 0.050884 0.264066 -0.714379
v 0.161715 0.096668 -0.615307
v 0.148122 0.021011 -0.618372
v 0.137733 0.076910 -0.596555
v 0.137015 0.073186 -0.623994
v -0.442843 0.185052 -0.642500
v -0.588685 0.132880 -0.588880
v 0.136150 0.094709 -0.656574
v 0.285202 0.023817 -0.670471
v 0.692350 0.004984 -0.547465
v 0.474775 0.036470 -0.778483
v 0.762350 0.006673 -0.548804
v 0.133069 0.131098 -0.593191
v 0.768179 0.005440 -0.536599
v 0.415173 0.049344 -0.754850
v 0.126782 0.049945 -0.582538
v 0.577349 0.019156 -0.643021
v 0.279295 0.064816 -0.569956
v 0.438643 0.003408 -0.739412
v 0.766649 0.002098 -0.540177
v -0.367005 0.238248 -0.525165
v -0.413087 0.126471 -0.549332
v -0.349578 0.133606 -0.549667
v -0.374761 0.120480 -0.581275
v -0.349373 0.217444 -0.657093
v -0.378180 0.114527 -0.657652
v -0.419831 0.200885 -0.626998
v -0.375019 0.115497 -0.597509
v -0.349584 0.126144 -0.646031
v -0.408249 0.129518 -0.633237
vn 0.8092 -0.5757 -0.1172
vn 0.0329 -0.9322 0.3605
vn 0.2033 -0.4731 -0.8572
vn 0.6511 -0.1081 0.7512
vn -0.1034 0.1072 0.9888
vn 0.3667 0.8089 0.4597
vn 0.4913 0.6749 -0.5506
vn -0.1953 0.4493 -0.8718
vn -0.3342 0.9424 -0.0167
vn -0.2536 -0.4742 -0.8431
vn -0.3481 -0.5888 0.7295
vn -0.4860 -0.7569 -0.4369
vn -0.3669 0.5705 0.7348
vn -0.2888 0.8284 -0.4800
vn -0.2717 0.8175 -0.5077
vn 0.9809 0.1509 -0.1224
vn 0.9572 -0.1682 0.2357
vn 0.3995 0.1815 0.8986
vn -0.9775 0.2040 0.0538
vn 0.0216 0.2336 -0.9721
vn 0.2578 0.8667 0.4269
vn -0.2846 -0.8802 -0.3799
vn -0.6488 0.6016 -0.4661
vn 0.3704 0.1631 -0.9144
vn 0.7217 0.0946 -0.6857
vn -0.5751 0.0479 0.8167
vn -0.0778 0.3359 -0.9387
vn 0.5357 -0.0039 0.8444
vn -0.4345 -0.9006 -0.0086
vn -0.3018 0.8103 0.5023
vn -0.3124 -0.7323 0.6051
vn -0.4986 -0.7626 0.4122
vn -0.9103 0.4053 -0.0838
vn 0.0963 0.9538 0.2845
vn -0.0435 0.4619 -0.8859
vn 0.9830 0.1337 0.1260
vn -0.7280 0.6754 0.1176
vn 0.4789 0.7878 -0.3875
vn -0.9207 -0.0000 -0.3902
vn 0.7185 0.2867 -0.6337
vn -0.0836 0.8000 -0.5941
vn 0.2771 0.2144 0.9366
vt 0.137302 0.713269
vt 0.302784 0.447270
vt 0.479718 0.703808
vt 0.626090 0.414045
vt 0.804333 0.324278
vt 0.103676 0.289019
vt 0.614719 0.857099
vt 0.140605 0.414110
vt 0.110335 0.831963
vt 0.537871 0.554473
vt 0.389547 0.720188
vt 0.374391 0.577080
vt 0.259882 0.693518
vt 0.740337 0.496831
vt 0.438490 0.846997
vt 0.675841 0.796496
vt 0.026450 0.351340
vt 0.143072 0.965119
vt 0.569929 0.969812
vt 0.583379 0.639099
vt 0.937077 0.643541
vt 0.220157 0.889894
vt 0.894661 0.747817
vt 0.319024 0.848721
vt 0.786928 0.799661
vt 0.482721 0.923620
vt 0.639806 0.668446
vt 0.274955 0.292088
vt 0.453450 0.165134
vt 0.460109 0.444180
vt 0.443806 0.302394
vt 0.466396 0.224612
vt 0.289500 0.202990
vt 0.614729 0.248935
vt 0.501814 0.172496
vt 0.512264 0.242455
vt 0.503162 0.213399
vt 0.480137 0.205787
vt 0.486549 0.234879
vt 0.772685 0.713421
vt 0.759681 0.587754
vt 0.790598 0.576083
vt 0.023800 0.144475
vt 0.197890 0.168479
vt 0.519271 0.037982
vt 0.603850 0.039904
vt 0.524179 0.098719
vt 0.687505 0.063505
vt 0.378079 0.102321
vt 0.743480 0.049094
vt 0.009651 0.083161
vt 0.589853 0.063928
vt 0.743426 0.046968
vt 0.331761 0.076234
vt 0.007208 0.015658
vt 0.033813 0.211350
vt 0.516640 0.051938
vt 0.603939 0.050735
vt 0.136342 0.031419
vt 0.158206 0.217162
vt 0.347684 0.034212
vt 0.359240 0.145421
vt 0.743099 0.045405
vt 0.743692 0.050824
vt 0.880800 0.421863
vt 0.960865 0.168129
vt 0.964269 0.438341
vt 0.877851 0.183559
vt 0.945487 0.377109
vt 0.901967 0.132207
vt 0.972227 0.395887
vt 0.895310 0.232676
vt 0.911798 0.499511
vt 0.975354 0.259343
vt 0.909086 0.286611
vt 0.866802 0.545037
vt 0.814600 0.492192
vt 0.967909 0.233743
vt 0.830799 0.471360
vt 0.959571 0.284058
vt 0.819137 0.521133
s 1
usemtl Material.007
f 39/58/7 27/29/8 26/28/9
f 39/57/7 36/52/10 27/30/8
f 27/30/8 36/52/10 28/32/11
f 36/52/10 25/26/12 28/32/11
f 37/54/13 26/28/9 29/34/14
f 25/26/12 37/54/13 30/36/15
f 37/54/13 29/34/14 30/36/15
f 26/28/9 27/29/8 31/38/16
f 27/30/8 28/32/11 32/41/17
f 25/25/12 30/37/15 28/33/11
f 29/35/14 26/27/9 31/39/16
f 31/39/16 27/31/8 35/50/18
f 28/33/11 33/46/19 32/42/17
f 30/37/15 33/46/19 28/33/11
f 30/37/15 34/48/20 33/46/19
f 30/37/15 29/35/14 34/48/20
f 29/35/14 31/39/16 34/48/20
f 27/31/8 32/43/17 35/50/18
f 31/40/16 42/64/21 34/49/20
f 25/26/12 36/52/10 38/55/22
f 25/26/12 38/55/22 37/54/13
f 37/54/13 38/55/22 26/28/9
f 26/28/9 38/55/22 39/58/7
f 40/61/23 39/60/7 41/63/24
f 36/53/10 39/59/7 40/62/23
f 38/56/22 36/53/10 40/62/23
f 38/56/22 41/63/24 39/60/7
f 42/64/21 31/40/16 35/51/18
f 33/47/19 34/49/20 42/64/21
f 35/51/18 43/65/25 42/64/21
f 35/51/18 32/44/17 43/65/25
f 42/64/21 43/66/25 33/47/19
f 32/45/17 33/47/19 43/66/25
f 44/67/26 49/75/27 45/68/28
f 49/75/27 51/78/29 45/68/28
f 51/78/29 47/73/30 45/68/28
f 46/71/31 47/73/30 50/76/32
f 50/77/32 48/74/33 46/72/31
f 54/83/34 55/85/35 49/75/27
f 49/75/27 55/85/35 51/78/29
f 47/73/30 51/78/29 53/81/36
f 47/73/30 53/81/36 50/76/32
f 49/75/27 52/79/37 54/83/34
f 51/78/29 55/85/35 53/81/36
f 55/85/35 46/69/31 53/81/36
f 46/70/31 56/87/38 53/82/36
f 53/82/36 56/87/38 50/77/32
f 52/80/37 45/68/28 54/84/34
f 54/84/34 45/68/28 55/86/35
f 44/67/26 45/68/28 52/80/37
f 55/86/35 45/68/28 47/73/30
f 47/73/30 46/71/31 55/86/35
f 56/88/38 46/72/31 48/74/33
f 58/91/39 57/89/40 60/95/41
f 57/89/40 59/93/42 60/95/41
f 59/94/42 57/90/40 58/92/39
f 63/99/43 61/96/44 66/104/45
f 65/102/46 62/98/47 66/104/45
f 61/96/44 65/102/46 66/104/45
f 61/97/44 63/100/43 64/101/48
f 63/100/43 66/105/45 64/101/48
f 65/103/46 61/97/44 64/101/48
