# Blender 3.4.1
# www.blender.org
mtllib pyramid2.mtl
o Cone
v 0.000000 -1.000000 0.000000
v 0.000000 -1.000000 -1.000000
v 0.642788 -1.000000 -0.766044
v 0.984808 -1.000000 -0.173648
v 0.866025 -1.000000 0.500000
v 0.342020 -1.000000 0.939693
v -0.342020 -1.000000 0.939693
v -0.866025 -1.000000 0.500000
v -0.984808 -1.000000 -0.173648
v -0.642788 -1.000000 -0.766044
v 0.000000 1.000000 0.000000
vn -0.0000 -1.0000 -0.0000
vn 0.3096 0.4252 -0.8505
vn 0.7838 0.4252 -0.4525
vn 0.8913 0.4252 0.1572
vn 0.5818 0.4252 0.6933
vn -0.0000 0.4252 0.9051
vn -0.5818 0.4252 0.6933
vn -0.8913 0.4252 0.1572
vn -0.7838 0.4252 -0.4525
vn -0.3096 0.4252 -0.8505
vt 0.750000 0.250000
vt 0.750000 0.490000
vt 0.250000 0.490000
vt 0.904269 0.433851
vt 0.404269 0.433851
vt 0.986354 0.291676
vt 0.486354 0.291676
vt 0.957846 0.130000
vt 0.457846 0.130000
vt 0.832085 0.024474
vt 0.332085 0.024474
vt 0.667915 0.024474
vt 0.167915 0.024474
vt 0.542154 0.130000
vt 0.042154 0.130000
vt 0.513646 0.291676
vt 0.013646 0.291676
vt 0.595731 0.433851
vt 0.095731 0.433851
vt 0.250000 0.250000
s 0
f 1/1/1 2/2/1 3/4/1
f 2/3/2 11/20/2 3/5/2
f 1/1/1 3/4/1 4/6/1
f 3/5/3 11/20/3 4/7/3
f 1/1/1 4/6/1 5/8/1
f 4/7/4 11/20/4 5/9/4
f 1/1/1 5/8/1 6/10/1
f 5/9/5 11/20/5 6/11/5
f 1/1/1 6/10/1 7/12/1
f 6/11/6 11/20/6 7/13/6
f 1/1/1 7/12/1 8/14/1
f 7/13/7 11/20/7 8/15/7
f 1/1/1 8/14/1 9/16/1
f 8/15/8 11/20/8 9/17/8
f 1/1/1 9/16/1 10/18/1
f 9/17/9 11/20/9 10/19/9
f 1/1/1 10/18/1 2/2/1
f 10/19/10 11/20/10 2/3/10
