# Blender 3.4.1
# www.blender.org
mtllib teapot.mtl
o teapot
v 6.124659 4.197220 1.521835
v 3.012626 4.197674 6.135235
v -2.831460 4.201849 7.166328
v -7.144592 4.192191 4.231640
v -8.256841 4.198922 -1.555794
v -5.153249 4.197676 -6.135235
v 0.451525 4.197222 -7.194969
v 5.064925 4.197675 -4.082936
v 8.345776 -0.190761 1.965528
v 8.745148 -4.676031 -2.091336
v 7.311313 -4.673082 5.560055
v 4.298170 -0.223071 8.019576
v 1.021027 -4.676034 9.815457
v -3.035840 -0.190764 9.416089
v -6.630368 -4.673083 8.381625
v -9.089888 -0.223064 5.368479
v -10.885773 -4.676033 2.091336
v -10.486401 -0.190761 -1.965528
v -9.451938 -4.673081 -5.560056
v -6.438792 -0.223064 -8.019576
v -3.161652 -4.676030 -9.815459
v 0.895215 -0.190763 -9.416090
v 4.489743 -4.673080 -8.381626
v 6.949263 -0.223063 -5.368480
v 5.270232 -7.679998 4.258374
v -3.921669 -7.633630 6.830817
v -8.246507 -7.484453 1.485184
v -6.261257 -7.697666 -5.193405
v 3.188064 -7.679996 -6.340545
v -9.064147 2.383451 0.436214
v -14.268677 1.877707 -0.509689
v -14.857132 2.657962 1.132971
v -8.695097 3.211549 1.098243
v -8.707867 3.151143 -1.161016
v -15.947778 -0.886513 -0.620199
v -15.170712 2.634602 -1.033848
v -14.052397 -1.232531 -0.928887
v -11.234967 -3.672875 -0.198185
v -14.919188 -1.088576 1.256727
v -10.875028 -3.552538 1.108311
v -10.422019 -4.565344 0.232829
v -10.758913 -4.686045 -1.125710
v 7.452174 -0.915560 0.843997
v 12.797033 4.184553 0.038259
v 10.794763 -0.370944 1.801638
v 7.479735 -4.175200 2.174651
v 11.413539 -2.807074 1.135016
v 13.844708 4.069166 0.835582
v 7.285367 -4.499791 -0.655137
v 14.931525 4.199917 -0.123233
v 10.503021 -0.854008 -2.081189
v 13.735459 4.398765 -0.783100
v 7.407442 -1.777472 -2.599327
v -2.607654 7.693775 1.251513
v 0.175456 7.447526 1.467691
v -0.435339 5.656064 0.706078
v -1.776389 5.656063 0.634975
v -2.316079 7.447527 -1.467690
v -1.086548 5.680878 -1.048948
v 0.397379 7.447527 -1.245766
v 5.495317 4.246030 1.351050
v 2.681163 4.245759 5.571632
v -2.421361 4.246029 6.565629
v -6.641946 4.245759 3.751474
v -7.635941 4.246030 -1.351049
v -4.821786 4.245761 -5.571632
v 0.280737 4.246031 -6.565628
v 4.501320 4.245760 -3.751474
vn 0.8981 -0.2913 0.3296
vn 0.9816 -0.1792 -0.0653
vn 0.9913 0.1044 0.0803
vn 0.7943 0.5090 0.3317
vn 0.6059 0.5146 0.6067
vn 0.6360 0.4257 0.6436
vn 0.6428 0.4124 0.6456
vn 0.8364 0.4258 0.3452
vn 0.7893 0.5157 0.3333
vn 0.8533 0.3668 0.3705
vn 0.6687 0.2479 0.7010
vn 0.7981 -0.0149 0.6024
vn 0.3966 -0.2898 0.8710
vn 0.7365 -0.1812 0.6517
vn 0.6432 0.1036 0.7587
vn 0.3115 0.5224 0.7938
vn -0.0183 0.5216 0.8530
vn -0.0207 0.4317 0.9018
vn -0.0048 0.4104 0.9119
vn 0.3442 0.4241 0.8377
vn 0.3193 0.5149 0.7955
vn 0.3361 0.3700 0.8661
vn -0.0278 0.2488 0.9682
vn 0.1374 -0.0122 0.9904
vn -0.3296 -0.2913 0.8981
vn 0.0653 -0.1792 0.9816
vn -0.0803 0.1044 0.9913
vn -0.3401 0.4966 0.7986
vn -0.6128 0.5025 0.6099
vn -0.6497 0.4144 0.6373
vn -0.6504 0.3925 0.6503
vn -0.3490 0.4118 0.8418
vn -0.3405 0.5019 0.7950
vn -0.3705 0.3668 0.8533
vn -0.7010 0.2479 0.6687
vn -0.6024 -0.0149 0.7981
vn -0.8710 -0.2898 0.3966
vn -0.6517 -0.1812 0.7365
vn -0.7587 0.1036 0.6432
vn -0.7959 0.5101 0.3260
vn -0.8570 0.5154 -0.0018
vn -0.9043 0.4269 -0.0065
vn -0.9089 0.4170 -0.0054
vn -0.8365 0.4264 0.3440
vn -0.7939 0.5160 0.3217
vn -0.8661 0.3700 0.3361
vn -0.9682 0.2488 -0.0278
vn -0.9904 -0.0122 0.1374
vn -0.8981 -0.2913 -0.3296
vn -0.9816 -0.1792 0.0653
vn -0.9913 0.1044 -0.0803
vn -0.7932 0.5096 -0.3335
vn -0.6043 0.5148 -0.6081
vn -0.6345 0.4258 -0.6451
vn -0.6437 0.4101 -0.6461
vn -0.8369 0.4244 -0.3456
vn -0.7898 0.5144 -0.3342
vn -0.8533 0.3668 -0.3705
vn -0.6687 0.2479 -0.7010
vn -0.7981 -0.0149 -0.6024
vn -0.3966 -0.2898 -0.8710
vn -0.7365 -0.1812 -0.6517
vn -0.6432 0.1036 -0.7587
vn -0.3225 0.5101 -0.7974
vn 0.0044 0.5140 -0.8578
vn 0.0096 0.4250 -0.9051
vn 0.0048 0.4104 -0.9119
vn -0.3442 0.4241 -0.8377
vn -0.3193 0.5149 -0.7955
vn -0.3361 0.3700 -0.8661
vn 0.0278 0.2488 -0.9682
vn -0.1374 -0.0122 -0.9904
vn 0.3296 -0.2913 -0.8981
vn -0.0653 -0.1792 -0.9816
vn 0.0803 0.1044 -0.9913
vn 0.3317 0.5090 -0.7943
vn 0.6067 0.5146 -0.6059
vn 0.6436 0.4257 -0.6360
vn 0.6456 0.4124 -0.6428
vn 0.3452 0.4258 -0.8364
vn 0.3333 0.5157 -0.7893
vn 0.3705 0.3668 -0.8533
vn 0.7010 0.2479 -0.6687
vn 0.6024 -0.0149 -0.7981
vn 0.8710 -0.2898 -0.3966
vn 0.6517 -0.1812 -0.7365
vn 0.7587 0.1036 -0.6432
vn 0.7974 0.5101 -0.3224
vn 0.8578 0.5140 0.0044
vn 0.9051 0.4250 0.0096
vn 0.9119 0.4104 0.0048
vn 0.8377 0.4241 -0.3442
vn 0.7955 0.5149 -0.3193
vn 0.8661 0.3700 -0.3361
vn 0.9682 0.2488 0.0278
vn 0.9904 -0.0122 -0.1374
vn 0.8571 -0.5146 0.0239
vn 0.7947 -0.5289 0.2980
vn 0.7650 -0.5778 0.2844
vn 0.5673 -0.4774 0.6710
vn 0.3093 -0.5804 0.7533
vn 0.3268 -0.6598 0.6767
vn 0.0146 -0.8149 0.5795
vn 0.2526 -0.7424 0.6205
vn 0.2221 -0.7124 0.6657
vn -0.0318 -0.4745 0.8797
vn -0.3104 -0.5170 0.7977
vn -0.2842 -0.5764 0.7662
vn -0.5845 -0.5889 0.5581
vn -0.7322 -0.6029 0.3170
vn -0.6970 -0.6496 0.3036
vn -0.6377 -0.7022 0.3167
vn -0.4972 -0.6760 0.5439
vn -0.5336 -0.6330 0.5610
vn -0.7580 -0.6522 -0.0055
vn -0.7112 -0.6497 -0.2686
vn -0.6781 -0.6871 -0.2608
vn -0.7050 -0.6263 -0.3327
vn -0.7744 -0.6293 -0.0658
vn -0.8111 -0.5810 -0.0676
vn -0.5861 -0.4622 -0.6654
vn -0.3228 -0.5474 -0.7721
vn -0.3334 -0.6209 -0.7094
vn 0.0694 -0.8035 -0.5913
vn -0.1741 -0.7471 -0.6416
vn -0.1520 -0.7153 -0.6821
vn 0.0239 -0.5146 -0.8571
vn 0.2980 -0.5289 -0.7947
vn 0.2844 -0.5778 -0.7650
vn 0.6710 -0.4774 -0.5673
vn 0.7533 -0.5804 -0.3093
vn 0.6767 -0.6598 -0.3268
vn 0.5539 -0.8319 0.0325
vn 0.6031 -0.7708 -0.2055
vn 0.6448 -0.7426 -0.1810
vn 0.0334 -0.9994 -0.0129
vn 0.0336 -0.9994 0.0112
vn -0.0133 -0.9999 -0.0047
vn 0.0189 -0.9993 0.0316
vn -0.0022 -0.9992 0.0398
vn -0.0115 -0.9999 -0.0075
vn -0.0294 -0.9996 -0.0020
vn -0.0302 -0.9990 0.0344
vn -0.1566 -0.9873 0.0255
vn -0.0430 -0.6826 0.7295
vn 0.0826 -0.9648 0.2499
vn 0.0506 -0.9683 0.2447
vn 0.0729 -0.8468 0.5269
vn 0.0072 0.0963 0.9953
vn 0.0128 -0.0494 0.9987
vn -0.0243 0.9621 0.2718
vn -0.1415 0.9650 -0.2210
vn -0.1977 0.9594 -0.2011
vn -0.7235 0.5376 0.4332
vn -0.8210 0.5489 -0.1570
vn -0.9926 -0.0717 -0.0982
vn -0.9466 -0.2340 0.2219
vn -0.6198 -0.2199 0.7533
vn -0.5855 0.3502 0.7311
vn -0.2015 0.9201 -0.3357
vn -0.0630 0.9761 0.2080
vn -0.0114 0.9815 0.1912
vn 0.6914 0.0439 -0.7212
vn 0.0225 -0.4656 -0.8847
vn -0.0164 0.1101 -0.9938
vn 0.1270 -0.7928 -0.5961
vn -0.0963 0.0587 -0.9936
vn -0.0360 0.2138 -0.9762
vn 0.2000 -0.6552 -0.7285
vn 0.1332 -0.9692 -0.2071
vn 0.1618 -0.9659 -0.2024
vn 0.6821 0.1218 0.7210
vn 0.9773 0.1750 0.1193
vn 0.9539 -0.2947 0.0564
vn 0.6763 0.7354 -0.0420
vn 0.5206 0.6830 0.5123
vn 0.4437 0.7142 0.5413
vn 0.6401 0.7419 0.1995
vn 0.6444 0.6364 -0.4239
vn 0.7488 0.5324 -0.3947
vn 0.9492 -0.3039 0.0813
vn 0.5898 0.0912 0.8024
vn 0.6172 0.0202 0.7865
vn -0.5024 -0.8502 0.1575
vn -0.2757 -0.5094 0.8152
vn -0.1471 -0.2764 0.9497
vn -0.5141 -0.6507 0.5588
vn -0.6808 -0.7320 0.0260
vn -0.5584 -0.8295 0.0090
vn -0.5469 -0.8370 -0.0167
vn -0.5490 -0.7349 0.3982
vn -0.6374 -0.6706 0.3796
vn -0.4941 -0.1399 -0.8581
vn 0.2242 0.3301 -0.9169
vn 0.2973 0.2479 -0.9220
vn -0.5612 -0.1550 -0.8130
vn 0.2638 0.1052 -0.9588
vn 0.1885 0.2164 -0.9579
vn 0.9743 0.1430 -0.1739
vn 0.6600 0.7513 -0.0062
vn 0.5429 0.8285 -0.1371
vn -0.1708 0.9021 0.3962
vn -0.5534 0.8269 -0.1001
vn -0.3012 0.8916 -0.3382
vn -0.9140 0.1753 0.3659
vn -0.7292 0.6771 -0.0993
vn -0.7418 0.6441 -0.1866
vn -0.4105 0.6276 0.6615
vn 0.0300 -0.0215 0.9993
vn 0.1145 0.1270 0.9853
vn -0.3050 0.5106 0.8039
vn -0.6423 0.6973 0.3181
vn -0.8645 0.3762 0.3333
vn 0.6770 -0.3533 0.6456
vn 0.2049 0.2163 0.9546
vn 0.0712 0.0563 0.9959
vn 0.0846 0.1625 0.9831
vn 0.6571 -0.3522 0.6665
vn 0.5359 -0.3549 0.7661
vn 0.2825 -0.8692 0.4059
vn 0.4124 -0.8866 -0.2095
vn 0.6780 -0.7284 -0.0987
vn 0.6052 -0.2537 -0.7546
vn 0.7541 -0.6238 -0.2057
vn 0.4959 -0.8170 -0.2944
vn 0.8056 -0.5329 -0.2589
vn 0.6104 -0.2596 -0.7483
vn 0.4280 -0.2829 -0.8584
vn 0.7647 -0.3235 -0.5573
vn 0.8164 -0.5492 0.1787
vn 0.8946 -0.4043 0.1903
vn 0.2393 -0.9709 0.0034
vn 0.3394 -0.7815 -0.5235
vn 0.0187 -0.7265 -0.6870
vn 0.4499 -0.7971 -0.4027
vn 0.2310 -0.2728 -0.9339
vn 0.3254 -0.1848 -0.9273
vn -0.2944 0.7146 -0.6345
vn -0.1007 0.9938 0.0480
vn -0.2894 0.9274 0.2369
vn -0.7263 0.6772 -0.1178
vn -0.3376 0.5938 -0.7304
vn -0.5481 0.3718 -0.7492
vn 0.1716 0.8495 -0.4989
vn 0.3852 0.9227 -0.0166
vn 0.3765 0.5252 0.7631
vn 0.9871 -0.0911 -0.1319
vn 0.9547 -0.0856 0.2851
vn 0.9466 -0.0583 0.3172
vn -0.1492 -0.0164 0.9887
vn 0.1842 -0.0828 0.9794
vn 0.1901 -0.1423 0.9714
vn 0.1207 -0.0776 0.9897
vn -0.2951 -0.0488 0.9542
vn -0.3378 -0.0292 0.9408
vn -0.8918 0.1207 -0.4360
vn -0.9906 0.0275 -0.1337
vn -0.9911 -0.0388 -0.1271
vn -0.9353 -0.3209 0.1495
vn -0.9142 -0.3262 -0.2404
vn -0.9351 -0.2719 -0.2272
vn 0.3692 0.6151 -0.6966
vn -0.0364 0.6087 -0.7926
vn -0.0624 0.9973 0.0390
vn -0.1102 0.1014 -0.9887
vn 0.3202 0.0589 -0.9455
vn 0.3929 0.0286 -0.9191
vn 0.7730 0.6111 0.1706
vn 0.7490 0.6154 -0.2455
vn -0.0520 0.9974 0.0501
vn 0.9256 -0.3307 -0.1841
vn 0.8501 -0.3120 -0.4242
vn 0.8052 -0.3684 -0.4646
vn 0.2866 0.9481 -0.1375
vn 0.3079 0.9507 -0.0367
vn 0.2471 0.9681 -0.0419
vn 0.2018 0.9638 0.1741
vn 0.2315 0.9662 0.1134
vn 0.2903 0.9496 0.1182
vn 0.0170 0.9652 0.2609
vn 0.0819 0.9667 0.2426
vn 0.1144 0.9491 0.2933
vn 0.0471 0.9577 0.2840
vn -0.0526 0.9532 0.2977
vn -0.0450 0.9701 0.2384
vn -0.1742 0.9638 0.2017
vn -0.1134 0.9662 0.2315
vn -0.1182 0.9496 0.2903
vn -0.2609 0.9652 0.0170
vn -0.2426 0.9667 0.0819
vn -0.2933 0.9491 0.1144
vn -0.2695 0.9629 -0.0168
vn -0.2788 0.9540 -0.1100
vn -0.2196 0.9700 -0.1041
vn -0.1956 0.9660 -0.1693
vn -0.2221 0.9691 -0.1072
vn -0.2806 0.9538 -0.1077
vn -0.0203 0.9608 -0.2764
vn -0.0841 0.9634 -0.2543
vn -0.1220 0.9463 -0.2995
vn 0.1742 0.9640 -0.2011
vn 0.1157 0.9651 -0.2351
vn 0.1294 0.9471 -0.2938
vn 0.2395 0.9708 -0.0128
vn 0.2239 0.9715 -0.0782
vn 0.2795 0.9544 -0.1049
vt 1.873299 1.990846
vt 0.000000 1.990875
vt 1.372191 1.988592
vt 0.854391 1.992217
vt 0.395461 1.993942
vt 0.000000 1.988375
vt 1.867295 1.988344
vt 1.372191 1.988592
vt 0.873299 1.990846
vt 0.372191 1.988592
vt 1.871685 1.345632
vt 0.000000 1.345684
vt 2.000000 0.876377
vt 0.128040 0.876445
vt 1.627749 0.876462
vt 1.371887 1.345668
vt 1.128041 0.876445
vt 0.871685 1.345631
vt 0.627749 0.876462
vt 0.371887 1.345669
vt 0.128040 0.876445
vt 2.000000 0.876377
vt 0.000000 1.345684
vt 1.871685 1.345631
vt 1.627749 0.876462
vt 1.371887 1.345669
vt 1.128041 0.876445
vt 0.871685 1.345631
vt 0.627749 0.876462
vt 0.371887 1.345669
vt 0.000000 0.308916
vt 1.629050 0.298992
vt 0.759093 0.301440
vt 2.000000 0.100000
vt 0.127865 0.300372
vt 2.000000 0.249684
vt 1.478821 0.080845
vt 1.495811 0.292896
vt 0.629050 0.298992
vt 2.000000 0.145534
vt 0.934573 1.000000
vt 0.000000 1.000000
vt 0.972407 0.704763
vt 0.125961 0.588949
vt 0.689458 0.653203
vt 0.661226 1.000000
vt 0.303458 1.000000
vt 0.419210 0.368579
vt 0.386684 0.656697
vt 1.000000 0.235461
vt 0.106782 0.269928
vt 1.000000 0.000000
vt 0.036252 0.000000
vt 0.680597 0.319995
vt 0.853225 0.000000
vt 0.541633 0.000000
vt 0.325992 -0.002309
vt 0.554174 0.000000
vt 0.514900 0.963887
vt 0.692981 0.292044
vt 0.860618 0.000000
vt 0.917746 0.253093
vt 0.000000 0.251140
vt 0.728396 0.963587
vt 0.000000 0.675000
vt 1.000000 0.000000
vt 0.047200 0.000000
vt 0.017627 0.991734
vt 0.301296 0.279796
vt 0.374615 0.952597
vt 0.322630 0.000000
vt 1.000000 0.500000
vt 0.300533 0.756362
vt 0.259666 0.678455
vt 0.750068 0.641615
vt 0.000000 0.750000
vt 0.724814 0.050902
vt 0.000000 0.250000
vt 0.704134 0.987890
vt 0.224814 0.050902
vt 0.204134 0.987890
vt 1.000000 0.987890
vt 0.750067 0.641615
vt 0.000000 0.250000
vt 0.501528 0.050902
vt 1.000000 0.987890
vt 0.480849 0.987890
vt 1.000000 0.500000
vt 0.250067 0.641615
vt 0.937254 0.002012
vt 0.000000 0.004003
vt 0.687465 0.001892
vt 0.437254 0.002012
vt 0.187465 0.001892
vt 0.000000 0.004003
vt 0.937254 0.002012
vt 0.687465 0.001892
vt 0.437254 0.002012
vt 0.187465 0.001892
s 0
f 11/15/1 10/13/2 9/11/3
f 1/1/4 2/3/5 12/16/6
f 12/16/7 9/11/8 1/1/9
f 9/11/10 12/16/11 11/15/12
f 13/17/13 11/15/14 12/16/15
f 2/3/16 3/4/17 14/18/18
f 14/18/19 12/16/20 2/3/21
f 12/16/22 14/18/23 13/17/24
f 15/19/25 13/17/26 14/18/27
f 3/4/28 4/5/29 16/20/30
f 16/20/31 14/18/32 3/4/33
f 14/18/34 16/20/35 15/19/36
f 17/21/37 15/19/38 16/20/39
f 4/5/40 5/6/41 18/23/42
f 18/23/43 16/20/44 4/5/45
f 16/20/46 18/23/47 17/21/48
f 19/25/49 17/22/50 18/24/51
f 5/7/52 6/8/53 20/26/54
f 20/26/55 18/24/56 5/7/57
f 18/24/58 20/26/59 19/25/60
f 21/27/61 19/25/62 20/26/63
f 6/8/64 7/9/65 22/28/66
f 22/28/67 20/26/68 6/8/69
f 20/26/70 22/28/71 21/27/72
f 23/29/73 21/27/74 22/28/75
f 7/9/76 8/10/77 24/30/78
f 24/30/79 22/28/80 7/9/81
f 22/28/82 24/30/83 23/29/84
f 10/14/85 23/29/86 24/30/87
f 8/10/88 1/2/89 9/12/90
f 9/12/91 24/30/92 8/10/93
f 24/30/94 9/12/95 10/14/96
f 10/13/97 11/15/98 25/32/99
f 11/15/100 13/17/101 25/32/102
f 26/33/103 25/32/104 13/17/105
f 13/17/106 15/19/107 26/33/108
f 15/19/109 17/21/110 27/35/111
f 27/35/112 26/33/113 15/19/114
f 17/22/115 19/25/116 28/38/117
f 28/38/118 27/36/119 17/22/120
f 19/25/121 21/27/122 28/38/123
f 29/39/124 28/38/125 21/27/126
f 21/27/127 23/29/128 29/39/129
f 23/29/130 10/14/131 29/39/132
f 25/31/133 29/39/134 10/14/135
f 29/40/136 25/32/137 28/37/138
f 25/32/139 26/33/140 28/38/141
f 28/38/142 26/34/143 27/36/144
f 32/45/145 31/43/146 30/41/147
f 30/41/148 33/46/149 32/45/150
f 33/46/151 34/47/152 32/45/153
f 32/45/154 36/49/155 35/48/156
f 35/48/157 39/54/158 32/45/159
f 36/49/160 32/45/161 34/47/162
f 31/44/163 35/48/164 36/49/165
f 31/44/166 36/49/167 34/47/168
f 34/47/169 30/42/170 31/44/171
f 39/54/172 37/50/173 31/43/174
f 37/50/175 39/54/176 40/55/177
f 40/55/178 38/52/179 37/50/180
f 31/43/181 32/45/182 39/54/183
f 41/56/184 40/55/185 39/54/186
f 39/54/187 35/48/188 41/56/189
f 42/57/190 41/56/191 35/48/192
f 35/48/193 31/44/194 37/51/195
f 35/48/196 37/51/197 42/57/198
f 42/57/199 37/51/200 38/53/201
f 45/60/202 51/69/203 43/58/204
f 45/60/205 44/59/206 51/69/207
f 43/58/208 46/61/209 45/60/210
f 48/64/211 44/59/212 45/60/213
f 47/62/214 45/60/215 46/61/216
f 45/60/217 47/62/218 48/64/219
f 46/61/220 49/66/221 47/62/222
f 51/69/223 47/63/224 49/67/225
f 47/63/226 51/69/227 52/70/228
f 52/70/229 48/65/230 47/63/231
f 48/65/232 52/70/233 50/68/234
f 49/67/235 53/71/236 51/69/237
f 53/71/238 43/58/239 51/69/240
f 44/59/241 52/70/242 51/69/243
f 50/68/244 52/70/245 44/59/246
f 60/88/247 55/75/248 56/77/249
f 57/80/250 56/77/251 55/75/252
f 55/75/253 54/74/254 57/80/255
f 59/84/256 57/80/257 54/74/258
f 54/72/259 58/83/260 59/85/261
f 60/89/262 58/83/263 54/73/264
f 58/83/265 60/89/266 59/85/267
f 55/76/268 60/89/269 54/74/270
f 56/78/271 59/85/272 60/89/273
f 59/86/274 56/79/275 61/90/276
f 62/92/277 61/90/278 56/79/279
f 63/93/280 62/92/281 56/79/282
f 56/79/283 57/81/284 63/93/285
f 64/94/286 63/93/287 57/81/288
f 65/95/289 64/94/290 57/81/291
f 57/82/292 59/87/293 65/96/294
f 66/97/295 65/96/296 59/87/297
f 67/98/298 66/97/299 59/87/300
f 68/99/301 67/98/302 59/87/303
f 61/91/304 68/99/305 59/87/306
