# Blender 3.4.1
# www.blender.org
mtllib untitled.mtl
o Cube
v 2.043545 2.008380 -0.778751
v 1.000000 -1.000000 -1.000000
v 0.187766 0.043678 0.135242
v 1.000000 -1.000000 1.000000
v 0.235581 1.900316 0.158797
v -1.000000 -1.000000 -1.000000
v -0.789030 1.351504 1.091737
v -1.000000 -1.000000 1.000000
vn 0.4613 -0.0231 0.8869
vn -0.0000 0.6380 0.7700
vn -0.9960 0.0894 -0.0000
vn -0.0000 -1.0000 -0.0000
vn 0.7892 0.6142 -0.0000
vn -0.0000 0.3710 -0.9286
vn 0.6808 -0.0268 0.7320
vn 0.6351 -0.0869 0.7675
vn -0.7140 0.5000 -0.4901
vn 0.6436 -0.2758 0.7140
vn -0.4593 0.2226 -0.8600
vt 0.625000 0.500000
vt 0.375000 0.500000
vt 0.625000 0.750000
vt 0.375000 0.750000
vt 0.875000 0.500000
vt 0.625000 0.250000
vt 0.125000 0.500000
vt 0.375000 0.250000
vt 0.875000 0.750000
vt 0.625000 1.000000
vt 0.625000 0.000000
vt 0.375000 0.000000
vt 0.375000 1.000000
vt 0.125000 0.750000
s 0
usemtl Material
f 5/5/1 3/3/1 1/1/1
f 3/3/2 8/13/2 4/4/2
f 7/11/3 6/8/3 8/12/3
f 2/2/4 8/14/4 6/7/4
f 2/2/5 3/3/5 4/4/5
f 5/6/6 2/2/6 6/8/6
f 5/5/7 7/9/7 3/3/7
f 3/3/8 7/10/8 8/13/8
f 7/11/9 5/6/9 6/8/9
f 2/2/4 4/4/4 8/14/4
f 2/2/10 1/1/10 3/3/10
f 5/6/11 1/1/11 2/2/11
